Coordinates
version=1
nRows=31
nColumns=33
inDegrees=yes

Units are S.I. units (second, meters, Newtons, ...)
Angles are in degrees.

endheader
time	ground_thorax_rot_x	ground_thorax_rot_y	ground_thorax_rot_z	ground_thorax_tx	ground_thorax_ty	ground_thorax_tz	clav_prot_r	clav_elev_r	scapula_abduction_r	scapula_elevation_r	scapula_upward_rot_r	scapula_winging_r	shoulder_elv_r	plane_of_elev_r	axial_rot_r	elbow_flexion_r	pro_sup_r	wrist_flex_r	wrist_dev_r	clav_prot_l	clav_elev_l	scapula_abduction_l	scapula_elevation_l	scapula_upward_rot_l	scapula_winging_l	shoulder_elv_l	plane_of_elev_l	axial_rot_l	elbow_flexion_l	pro_sup_l	wrist_flex_l	wrist_dev_l	
9.5900	33.569052	10.312981	17.247855	-74.053156	769.524705	9.985024	11.410217	33.784007	45.000000	31.869988	-9.784175	-2611.069027	-1382.214049	28.672193	63.362436	1809.313335	388.400224	17.446848	10.443642	-2.019870	-45.000000	-45.000000	45.000000	4.927012	2260.715716	-4604.198296	13.738160	180.000000	1084.107289	-137.224811	5.671508	-13.357349	
9.6000	33.650654	10.286697	17.244163	-74.589416	769.554277	9.794990	11.387796	33.862169	45.000000	31.928963	-9.852500	-2611.043420	-1382.205430	28.719681	63.173623	1809.276932	388.289359	17.450163	10.432878	-2.242860	-45.000000	-45.000000	45.000000	5.470062	2261.019004	-4604.231675	13.716287	180.000000	1084.153737	-136.735148	5.685597	-13.363999	
9.6100	33.732579	10.259614	17.230248	-75.136271	769.587921	9.616209	11.327262	33.968579	45.000000	32.003060	-9.921909	-2611.035759	-1382.223587	28.779369	62.978589	1809.234098	388.186038	17.459178	10.435322	-2.459520	-45.000000	-45.000000	45.000000	5.987625	2261.338538	-4604.279141	13.736232	180.000000	1084.210080	-136.261317	5.719623	-13.365362	
9.6200	33.806002	10.251743	17.235426	-75.703775	769.631289	9.466151	11.326135	34.058718	45.000000	32.083894	-10.014385	-2611.018542	-1382.219875	28.825244	62.807301	1809.217798	388.093993	17.469866	10.427643	-2.617255	-45.000000	-45.000000	45.000000	6.401227	2261.599185	-4604.293708	13.733944	180.000000	1084.242329	-135.819025	5.741879	-13.384768	
9.6300	33.875187	10.259419	17.256858	-76.298509	769.684188	9.339460	11.347335	34.152219	45.000000	32.175022	-10.122239	-2610.988956	-1382.199166	28.853824	62.652068	1809.220960	388.015883	17.484678	10.416589	-2.743689	-45.000000	-45.000000	45.000000	6.744717	2261.820611	-4604.282157	13.711585	180.000000	1084.264251	-135.410475	5.757114	-13.411914	
9.6400	33.946379	10.278315	17.276435	-76.929124	769.747546	9.233574	11.388868	34.247954	45.000000	32.279129	-10.240247	-2610.977075	-1382.181976	28.895265	62.502686	1809.229898	387.953312	17.500201	10.402933	-2.833276	-45.000000	-45.000000	45.000000	7.029149	2262.031177	-4604.273594	13.702845	180.000000	1084.279757	-135.038269	5.781739	-13.449899	
9.6500	34.019791	10.312845	17.307596	-77.603551	769.821291	9.141340	11.437517	34.354824	45.000000	32.396079	-10.367388	-2610.953663	-1382.141923	28.916629	62.362553	1809.258751	387.906155	17.520629	10.385159	-2.915557	-45.000000	-45.000000	45.000000	7.290441	2262.221968	-4604.250067	13.665221	180.000000	1084.288150	-134.705931	5.799588	-13.491986	
9.6600	34.097031	10.349273	17.328721	-78.328701	769.905504	9.055701	11.487480	34.468477	45.000000	32.524884	-10.500250	-2610.952189	-1382.113162	28.958348	62.215907	1809.288300	387.872755	17.541709	10.367192	-2.989205	-45.000000	-45.000000	45.000000	7.552235	2262.436280	-4604.240577	13.651541	180.000000	1084.301135	-134.409672	5.832188	-13.537171	
9.6700	34.180019	10.392108	17.352206	-79.110125	770.001156	8.972466	11.540409	34.595781	45.000000	32.668757	-10.638537	-2610.945444	-1382.070185	28.989562	62.068180	1809.338579	387.849470	17.566225	10.342205	-3.071726	-45.000000	-45.000000	45.000000	7.834505	2262.653310	-4604.225383	13.613759	180.000000	1084.310668	-134.152912	5.860978	-13.585590	
9.6800	34.269730	10.434618	17.359320	-79.951184	770.110031	8.889891	11.598647	34.728273	45.000000	32.826703	-10.780083	-2610.962741	-1382.035550	29.040035	61.910138	1809.398281	387.833186	17.593003	10.315540	-3.152742	-45.000000	-45.000000	45.000000	8.140164	2262.900093	-4604.229740	13.597516	180.000000	1084.321768	-133.935644	5.903968	-13.638402	
9.6900	34.363728	10.476829	17.366548	-80.852649	770.234434	8.807011	11.656519	34.875133	45.000000	32.999368	-10.927373	-2610.972894	-1381.993254	29.082614	61.748076	1809.476481	387.821097	17.622650	10.282621	-3.245811	-45.000000	-45.000000	45.000000	8.475218	2263.153441	-4604.222883	13.564185	180.000000	1084.336006	-133.762284	5.945250	-13.692550	
9.7000	34.456609	10.514826	17.369928	-81.812416	770.376921	8.722617	11.720055	35.020951	45.000000	33.177502	-11.081813	-2610.989004	-1381.956812	29.135875	61.574935	1809.557742	387.811926	17.655200	10.252474	-3.340033	-45.000000	-45.000000	45.000000	8.830344	2263.430896	-4604.211982	13.548581	180.000000	1084.364066	-133.631157	5.997744	-13.744770	
9.7100	34.551313	10.550476	17.372704	-82.825526	770.540051	8.635043	11.782619	35.169619	45.000000	33.363384	-11.240734	-2611.003005	-1381.921129	29.192793	61.390770	1809.641470	387.804509	17.687260	10.217314	-3.439842	-45.000000	-45.000000	45.000000	9.204500	2263.714925	-4604.187964	13.526314	180.000000	1084.403332	-133.545901	6.053723	-13.798122	
9.7200	34.641879	10.593599	17.378050	-83.884853	770.726212	8.543004	11.844688	35.310520	45.000000	33.546057	-11.401704	-2611.014656	-1381.874071	29.242949	61.194437	1809.726324	387.800792	17.726801	10.189971	-3.541124	-45.000000	-45.000000	45.000000	9.590651	2264.010213	-4604.154736	13.507047	180.000000	1084.453605	-133.508350	6.116876	-13.848437	
9.7300	34.723592	10.636500	17.383922	-84.981989	770.937601	8.446928	11.898382	35.423470	45.000000	33.724472	-11.562118	-2611.023880	-1381.825026	29.294560	60.990406	1809.806214	387.804468	17.766465	10.162232	-3.641997	-45.000000	-45.000000	45.000000	9.982806	2264.299847	-4604.097677	13.485773	180.000000	1084.514660	-133.522161	6.182730	-13.898303	
9.7400	34.798028	10.689548	17.394657	-86.108567	771.176058	8.349685	11.949278	35.552614	45.000000	33.906343	-11.723366	-2611.025234	-1381.768426	29.335999	60.774892	1809.883475	387.819802	17.814502	10.142388	-3.741287	-45.000000	-45.000000	45.000000	10.379757	2264.594099	-4604.027044	13.467032	180.000000	1084.587944	-133.588585	6.254337	-13.944576	
9.7500	34.868734	10.742621	17.391992	-87.257360	771.443444	8.257597	12.004206	35.666441	45.000000	34.091449	-11.881781	-2611.036575	-1381.715794	29.395358	60.546243	1809.952535	387.851540	17.860463	10.119923	-3.839063	-45.000000	-45.000000	45.000000	10.790019	2264.889019	-4603.949821	13.457177	180.000000	1084.670580	-133.709754	6.331976	-13.993056	
9.7600	34.944923	10.810554	17.384533	-88.423943	771.741533	8.178519	12.056541	35.821899	45.000000	34.291291	-12.034909	-2611.045545	-1381.650434	29.445715	60.303507	1810.024905	387.904548	17.916195	10.102582	-3.940832	-45.000000	-45.000000	45.000000	11.221739	2265.194811	-4603.876455	13.442650	180.000000	1084.761189	-133.885998	6.415905	-14.041342	
9.7700	35.021237	10.875838	17.360773	-89.607529	772.072312	8.119771	12.115647	35.951221	45.000000	34.494518	-12.182145	-2611.062421	-1381.584289	29.512458	60.055553	1810.096530	387.984446	17.970181	10.082784	-4.047096	-45.000000	-45.000000	45.000000	11.675000	2265.501311	-4603.795379	13.432921	180.000000	1084.859520	-134.115328	6.502457	-14.089293	
9.7800	35.108641	10.948684	17.331701	-90.811877	772.437603	8.083528	12.169418	36.136548	45.000000	34.721429	-12.325874	-2611.071094	-1381.513549	29.570371	59.802752	1810.174981	388.092749	18.031479	10.062658	-4.158683	-45.000000	-45.000000	45.000000	12.152044	2265.819165	-4603.714967	13.417560	180.000000	1084.969378	-134.392970	6.595041	-14.137006	
9.7900	35.200496	11.015064	17.288526	-92.043734	772.839549	8.066534	12.234150	36.290671	45.000000	34.952977	-12.466733	-2611.082658	-1381.440018	29.639302	59.553020	1810.260562	388.228887	18.090339	10.037085	-4.278381	-45.000000	-45.000000	45.000000	12.652433	2266.137092	-4603.626395	13.402062	180.000000	1085.086637	-134.712784	6.687159	-14.181994	
9.8000	35.302702	11.081301	17.242980	-93.311957	773.280203	8.058600	12.286724	36.484457	45.000000	35.203481	-12.606103	-2611.083672	-1381.364134	29.695767	59.306059	1810.357874	388.387286	18.154129	10.005377	-4.402401	-45.000000	-45.000000	45.000000	13.173662	2266.461845	-4603.532652	13.379748	180.000000	1085.213634	-135.066208	6.783938	-14.227622	
9.8100	35.406200	11.133728	17.189067	-94.624205	773.761914	8.047048	12.348688	36.638805	45.000000	35.453045	-12.744411	-2611.084998	-1381.287810	29.760123	59.067826	1810.462661	388.561076	18.213134	9.965055	-4.532363	-45.000000	-45.000000	45.000000	13.710527	2266.781025	-4603.425331	13.358821	180.000000	1085.346266	-135.443925	6.877654	-14.269129	
9.8200	35.518511	11.180588	17.133477	-95.985529	774.286814	8.019203	12.400490	36.836324	45.000000	35.717314	-12.885119	-2611.081423	-1381.213589	29.819761	58.829373	1810.573050	388.739136	18.271887	9.911613	-4.662679	-45.000000	-45.000000	45.000000	14.262309	2267.104232	-4603.316959	13.336830	180.000000	1085.485596	-135.834841	6.976727	-14.314439	
9.8300	35.632078	11.215786	17.072023	-97.395851	774.857158	7.968898	12.465471	37.003766	45.000000	35.974011	-13.026492	-2611.082228	-1381.133930	29.888390	58.591516	1810.686853	388.913804	18.325719	9.850242	-4.797319	-45.000000	-45.000000	45.000000	14.825458	2267.422731	-4603.202457	13.315751	180.000000	1085.624035	-136.228934	7.071657	-14.357225	
9.8400	35.750352	11.247184	17.010360	-98.851746	775.474370	7.895710	12.517589	37.190149	44.999999	36.234494	-13.167650	-2611.082519	-1381.051049	29.952634	58.351319	1810.803185	389.078999	18.379962	9.779776	-4.928041	-45.000000	-45.000000	45.000000	15.391029	2267.738503	-4603.085720	13.293154	180.000000	1085.759474	-136.617275	7.170492	-14.406278	
9.8500	35.869494	11.271573	16.946101	-100.347533	776.138861	7.804957	12.579384	37.355005	44.999999	36.491749	-13.310045	-2611.086412	-1380.967512	30.022400	58.112809	1810.918975	389.234564	18.431230	9.706935	-5.056144	-45.000000	-45.000000	45.000000	15.950727	2268.046079	-4602.962960	13.271965	180.000000	1085.886758	-136.994194	7.264191	-14.453948	
9.8600	35.991879	11.296639	16.884754	-101.878265	776.849460	7.703311	12.633164	37.535869	44.999998	36.757967	-13.458103	-2611.086223	-1380.885975	30.086049	57.872290	1811.034078	389.381587	18.483889	9.630006	-5.176247	-45.000000	-45.000000	45.000000	16.500512	2268.349606	-4602.835613	13.250369	180.000000	1086.005891	-137.355971	7.360144	-14.507732	
9.8700	36.117124	11.322744	16.827894	-103.440233	777.603844	7.597683	12.698927	37.712904	44.999996	37.034833	-13.621464	-2611.082872	-1380.811217	30.151870	57.627999	1811.146874	389.525739	18.535092	9.554281	-5.290765	-45.000000	-45.000000	45.000000	17.039097	2268.652027	-4602.702125	13.228750	180.000000	1086.114010	-137.701875	7.449558	-14.559131	
9.8800	36.246552	11.354940	16.777618	-105.032336	778.398580	7.492314	12.766405	37.910506	44.999993	37.327376	-13.804359	-2611.071253	-1380.740923	30.212959	57.372072	1811.257670	389.672055	18.587780	9.476459	-5.397730	-45.000000	-45.000000	45.000000	17.567521	2268.957600	-4602.564430	13.206401	180.000000	1086.212419	-138.031281	7.539341	-14.615160	
9.8900	36.383327	11.406912	16.753999	-106.655163	779.229743	7.389282	12.856270	38.126957	44.999988	37.650600	-14.043653	-2611.043260	-1380.681618	30.272343	57.094690	1811.364676	389.829864	18.637859	9.398159	-5.499149	-45.000000	-45.000000	45.000000	18.088120	2269.286351	-4602.421836	13.175999	180.000000	1086.295669	-138.348119	7.617351	-14.664621	
